<?xml version="1.0" encoding="UTF-8"?>
<svg width="320" height="320" viewBox="0 0 320 320" xmlns="http://www.w3.org/2000/svg">
  <defs>
    <filter id="s" x="-20%" y="-20%" width="140%" height="140%">
      <feDropShadow dx="0" dy="8" stdDeviation="8" flood-color="#000" flood-opacity="0.15"/>
    </filter>
  </defs>
  <rect width="320" height="320" rx="28" fill="#FFFFFF"/>
  <g filter="url(#s)">
    <path d="M160 70c30 0 56 10 78 30l30-12 18 44-40 16c-1 20-4 38-9 55-6 21-21 37-44 37h-66c-23 0-38-16-44-37-5-17-8-35-9-55l-40-16 18-44 30 12c22-20 48-30 78-30z" fill="#FFFFF0"/>
    <rect x="120" y="60" width="80" height="28" rx="10" fill="#1E40AF"/>
    <rect x="110" y="242" width="100" height="22" rx="10" fill="#1E40AF"/>
    <circle cx="200" cy="106" r="8" fill="#B76E79"/>
  </g>
</svg>
